<?xml version="1.0" encoding="UTF-8" standalone="no"?><!DOCTYPE svg PUBLIC "-//W3C//DTD SVG 1.1//EN" "http://www.w3.org/Graphics/SVG/1.1/DTD/svg11.dtd"><svg width="100%" height="100%" viewBox="0 0 286 287" version="1.1" xmlns="http://www.w3.org/2000/svg" xmlns:xlink="http://www.w3.org/1999/xlink" xml:space="preserve" xmlns:serif="http://www.serif.com/" style="fill-rule:evenodd;clip-rule:evenodd;stroke-linejoin:round;stroke-miterlimit:2;"><g id="grad-cap" serif:id="grad cap"><circle cx="143" cy="143.014" r="143" style="fill:url(#_Linear1);"/><g><g><g><path d="M143,224.028c-23.155,-20.731 -48.967,-34.36 -78.167,-36.405l0,-35.579l156.334,0l0,35.579c-29.314,2.053 -54.94,15.507 -78.167,36.377l0,0.028Z" style="fill:url(#_Linear2);"/><path d="M143,115.667l-78.167,36.377l78.167,36.377l78.167,-36.377l-78.167,-36.377Z"/></g><path d="M143,62l-133.333,62.05l0,3.334l133.333,62.05l133.333,-62.05l0,-3.334l-133.333,-62.05Z"/><path d="M143,62l-133.333,62.05l133.333,62.051l133.333,-62.051l-133.333,-62.05Z" style="fill:url(#_Linear3);"/></g><path d="M73.611,216.304l-0.592,-60.674c-0.012,-1.208 0.644,-2.325 1.706,-2.902c10.52,-5.73 65.608,-35.728 65.608,-35.728l4.667,2c0,0 -57.704,31.245 -67.059,36.31c-0.785,0.425 -1.272,1.247 -1.267,2.139l0.3,59.056c4.582,4.694 4.045,27.495 4.045,27.495c-4.243,-1.795 -8.127,-1.767 -11.666,0c0,0 -0.553,-23.5 4.258,-27.696Z" style="fill:url(#_Linear4);"/><ellipse cx="143" cy="117.333" rx="9.333" ry="4.333" style="fill:url(#_Linear5);"/></g></g><defs><linearGradient id="_Linear1" x1="0" y1="0" x2="1" y2="0" gradientUnits="userSpaceOnUse" gradientTransform="matrix(204,237,-237,204,40,29)"><stop offset="0" style="stop-color:#00274c;stop-opacity:1"/><stop offset="0.55" style="stop-color:#0d3264;stop-opacity:1"/><stop offset="1" style="stop-color:#3e5bbb;stop-opacity:1"/></linearGradient><linearGradient id="_Linear2" x1="0" y1="0" x2="1" y2="0" gradientUnits="userSpaceOnUse" gradientTransform="matrix(-78.1667,-38.3333,38.3333,-78.1667,143,210.667)"><stop offset="0" style="stop-color:#000;stop-opacity:1"/><stop offset="1" style="stop-color:#4d4d4d;stop-opacity:1"/></linearGradient><linearGradient id="_Linear3" x1="0" y1="0" x2="1" y2="0" gradientUnits="userSpaceOnUse" gradientTransform="matrix(124.333,61,-61,124.333,92,86)"><stop offset="0" style="stop-color:#4d4d4d;stop-opacity:1"/><stop offset="1" style="stop-color:#000;stop-opacity:1"/></linearGradient><linearGradient id="_Linear4" x1="0" y1="0" x2="1" y2="0" gradientUnits="userSpaceOnUse" gradientTransform="matrix(8.69499e-15,-142,142,8.69499e-15,80,244)"><stop offset="0" style="stop-color:#94ef00;stop-opacity:1"/><stop offset="1" style="stop-color:#b0b000;stop-opacity:1"/></linearGradient><linearGradient id="_Linear5" x1="0" y1="0" x2="1" y2="0" gradientUnits="userSpaceOnUse" gradientTransform="matrix(12.6667,8.66667,-8.66667,12.6667,136.667,113)"><stop offset="0" style="stop-color:#ffff1d;stop-opacity:1"/><stop offset="1" style="stop-color:#b0b000;stop-opacity:1"/></linearGradient></defs></svg>